<svg xmlns="http://www.w3.org/2000/svg" width="290.562" height="55" viewBox="0 0 290.562 55">
  <path id="Greeentech_logo" data-name="Greeentech logo" d="M-696.506-81.33q-16.09,0-32.18,0a14.766,14.766,0,0,1-14.281-9.959,14.8,14.8,0,0,1,9.091-18.848,14.8,14.8,0,0,1,4.11-.807c.407-.023.815-.032,1.223-.032q32.085,0,64.171.006c5.706,0,10.239,2.347,13.171,7.284a14.777,14.777,0,0,1-12.091,22.323c-2.16.1-4.327.036-6.491.037Q-683.146-81.327-696.506-81.33Zm41.754-12.152h-83.43a10.484,10.484,0,0,0,.4,1.119,9.515,9.515,0,0,0,9.143,5.746q32.189-.012,64.377,0a9.42,9.42,0,0,0,5.608-1.569,9.452,9.452,0,0,0,3.9-5.294Zm-83.443-5.345h83.46a11,11,0,0,0-.4-1.111,9.485,9.485,0,0,0-9.145-5.751q-32.183-.008-64.366.033a11.567,11.567,0,0,0-4.282.852A9.107,9.107,0,0,0-738.195-98.827Zm-54.134-4.336a14.906,14.906,0,0,0,2.287,17.2,14.506,14.506,0,0,0,7.957,4.333,15.039,15.039,0,0,0,12.315-3.105,32.377,32.377,0,0,1-.028,4.368,9.529,9.529,0,0,1-15.221,6.039,23.925,23.925,0,0,1-2.583-2.828,2.64,2.64,0,0,0-3.632-.426,2.644,2.644,0,0,0-.48,3.7,14.834,14.834,0,0,0,12.7,6.813,14.749,14.749,0,0,0,14.54-14.4c.006-4.831.032-9.662.045-14.493.005-2.121,0-4.242,0-6.253l-5.78,3.006c1.955,7.084-2.789,11.605-7.186,12.418a9.455,9.455,0,0,1-11.218-7.34,8.965,8.965,0,0,1,1.268-7.118,9.561,9.561,0,0,1,8.539-4.46l1.168-5.1C-783.108-111.791-789.419-108.552-792.329-103.163Zm226.86,9.639h-24.191a30.488,30.488,0,0,0,2.005,3.352,9.454,9.454,0,0,0,13.579,1.247,2.7,2.7,0,0,1,2.942-.64,2.558,2.558,0,0,1,1.436,3.32,2.562,2.562,0,0,1-.52.816,12.964,12.964,0,0,1-7.758,3.88,14.717,14.717,0,0,1-16.888-12.077,14.862,14.862,0,0,1,14.56-17.346c8.365.071,14.727,6.575,14.833,15.165C-565.461-95.092-565.469-94.376-565.469-93.525Zm-5.757-5.295c-.836-3.9-5.041-6.977-9.24-6.852-4.256.126-8.358,3.28-8.865,6.852Zm43.3-9.928c0-3.482.008-6.964,0-10.447a2.614,2.614,0,0,0-2.554-2.884,2.65,2.65,0,0,0-2.694,2.866c-.014.565,0,1.129,0,1.694q-.005,16.517-.013,33.034c0,1.877,1.043,3.122,2.64,3.138,1.573.016,2.644-1.269,2.634-3.113-.015-2.76-.034-5.521,0-8.281a30.386,30.386,0,0,1,.275-5.528,9.385,9.385,0,0,1,10.062-7.361,9.289,9.289,0,0,1,8.659,8.754c.185,4.13.084,8.275.063,12.412a2.835,2.835,0,0,0,2.576,3.113,2.693,2.693,0,0,0,2.745-2.843c.005-4.265.085-8.539-.138-12.793a14.647,14.647,0,0,0-17.376-13.729,15.328,15.328,0,0,0-6.876,3.217ZM-621.061-90.7q0,3.2,0,6.393a2.78,2.78,0,0,0,2.638,2.965,2.7,2.7,0,0,0,2.674-2.814c-.021-3.92-.042-7.839-.088-11.759a19.186,19.186,0,0,0-.2-2.617,14.717,14.717,0,0,0-21.982-10.36c-4.9,2.929-7.231,7.4-7.325,13.048-.062,3.857-.044,7.717-.025,11.576a3.651,3.651,0,0,0,.352,1.531,2.508,2.508,0,0,0,2.937,1.285,2.616,2.616,0,0,0,1.968-2.743c0-3.952-.037-7.905-.005-11.857a9.454,9.454,0,0,1,9.308-9.61,9.407,9.407,0,0,1,9.714,8.66c.124,2.094.021,4.2.021,6.3Zm59.179-2.172a14.634,14.634,0,0,0,16.547,11.342,12.723,12.723,0,0,0,7.993-3.981A2.528,2.528,0,0,0-538-89.4c-1.066-.648-2.115-.476-3.337.546a9.578,9.578,0,0,1-10.9.965,9.538,9.538,0,0,1-4.533-10.384,9.549,9.549,0,0,1,15.611-5,2.614,2.614,0,0,0,4.151-.659,2.847,2.847,0,0,0-1.064-3.633,14.528,14.528,0,0,0-10.576-3.311,14.863,14.863,0,0,0-13.686,14.758A32.1,32.1,0,0,0-561.882-92.874Zm-45.407-19.233c0-2.384.011-4.768,0-7.151a2.661,2.661,0,0,0-2.646-2.82,2.622,2.622,0,0,0-2.605,2.843q0,12.7,0,25.4a11.981,11.981,0,0,0,1.629,6.385c3.117,5.109,7.79,6.461,12.924,6.056a2.785,2.785,0,0,0,1.491-.69,2.43,2.43,0,0,0,.648-2.836,2.4,2.4,0,0,0-2.271-1.679,33.4,33.4,0,0,1-3.75-.2,6.717,6.717,0,0,1-5.391-6.68c-.066-3.857-.019-7.716-.016-11.573a4.291,4.291,0,0,1,.109-.636c.7,0,1.388,0,2.072,0,1.63-.011,3.264.042,4.888-.061l.041,0a2.5,2.5,0,0,0,2.387-2.6,2.609,2.609,0,0,0-2.374-2.584,15.151,15.151,0,0,0-1.691-.038c-1.778,0-3.556,0-5.439,0ZM-760.225-91.829c0,2.539-.011,5.078,0,7.617a2.648,2.648,0,0,0,1.848,2.743,2.594,2.594,0,0,0,3.393-2.664c.02-4.859,0-9.717.012-14.576a6.826,6.826,0,0,1,6.338-6.912c.9-.08,1.818-.029,2.722-.1a2.648,2.648,0,0,0,2.582-2.685,2.645,2.645,0,0,0-2.711-2.563,24.953,24.953,0,0,0-2.912.045,11.83,11.83,0,0,0-11.092,10.552,76.459,76.459,0,0,0-.054,8.542Zm-.515-22.063c-4.664-1.565-8.816-.492-12.587,2.471a6.362,6.362,0,0,0-2.28,3.37,15.051,15.051,0,0,0-.261,2.49l.292.075a16.935,16.935,0,0,1,11.735-7.391,1.058,1.058,0,0,1-.464.259,17.607,17.607,0,0,0-10.225,8.213.912.912,0,0,0,.293,1.406,4.682,4.682,0,0,0,4.028.681,9.28,9.28,0,0,0,5.725-4.815c1.3-2.267,2.419-4.677,4.685-6.38C-760.184-113.669-760.458-113.8-760.74-113.892Z" transform="translate(794.075 122.08)" fill="#fff"/>
</svg>
