<svg xmlns="http://www.w3.org/2000/svg" width="260" height="53.53" viewBox="0 0 260 53.53">
  <path id="Herbafabrica_logo" d="M201.246,23.627l0-.458c0-1.884.005-3.767,0-5.65a1.4,1.4,0,0,0,0-.181,1.342,1.342,0,0,0-1.411-1.275,1.389,1.389,0,0,0-1.3,1.573V35.767c0,.082,0,.164,0,.245a1.358,1.358,0,0,0,2.714,0c.011-.131-.068-.287.068-.4a7.671,7.671,0,0,0,10.6-.949,7.967,7.967,0,0,0,.045-10.07A7.614,7.614,0,0,0,201.246,23.627Zm4.922,10.933a4.968,4.968,0,0,1-.051-9.935h.057a4.969,4.969,0,0,1-.006,9.935ZM141.449,23.6v-.61c0-1.8.007-3.6,0-5.405a1.368,1.368,0,1,0-2.714.033V31.962c0,1.359-.011,2.719.012,4.078a1.306,1.306,0,0,0,1.24,1.268,1.355,1.355,0,0,0,1.406-1.028c.047-.2.063-.412.1-.683a7.586,7.586,0,0,0,5.72,1.668,7.262,7.262,0,0,0,5.18-3,7.769,7.769,0,0,0-.609-10.07A7.587,7.587,0,0,0,141.449,23.6Zm4.89,10.961h-.075a4.91,4.91,0,0,1-4.8-5.011v-.008a4.886,4.886,0,0,1,4.855-4.916,4.968,4.968,0,0,1,.023,9.936Zm-19.661-6.012a7.885,7.885,0,0,0-.174-.905,7.583,7.583,0,0,0-9.25-5.546,7.341,7.341,0,0,0-5.537,5.881,7.458,7.458,0,0,0,2.617,7.605,7.215,7.215,0,0,0,6.348,1.577,6.493,6.493,0,0,0,3.649-1.973,1.367,1.367,0,0,0,0-1.833,1.308,1.308,0,0,0-1.754-.2c-.16.108-.3.245-.452.368a4.879,4.879,0,0,1-7.53-2.086c-.134-.358-.093-.471.317-.467,1.9.02,3.8.009,5.7.009,1.885,0,3.77-.013,5.655.009.414.006.52-.128.5-.526C126.733,29.824,126.758,29.187,126.679,28.549ZM123.3,28.2h-4.151c-1.4,0-2.8-.01-4.2.007-.386.005-.52-.053-.351-.48a4.878,4.878,0,0,1,9.056-.07C123.854,28.164,123.833,28.2,123.3,28.2Zm72.676-6.281a1.329,1.329,0,0,0-1.536.531,2.022,2.022,0,0,0-.273,1.171,7.572,7.572,0,0,0-10.24.483,7.865,7.865,0,0,0-.859,9.941,7.315,7.315,0,0,0,4.317,3.027,7.592,7.592,0,0,0,6.762-1.477c.019.125.032.185.036.245a1.4,1.4,0,0,0,1.41,1.472,1.381,1.381,0,0,0,1.307-1.562c0-.933,0-1.867,0-2.8q.005-4.838,0-9.676A1.4,1.4,0,0,0,195.971,21.918Zm-1.8,7.722a4.944,4.944,0,0,1-4.889,4.924h-.089a4.97,4.97,0,0,1,.09-9.937h.052a4.927,4.927,0,0,1,4.835,5.015Zm-23.382-6.3a2.437,2.437,0,0,0-.01-.245,1.28,1.28,0,0,0-.893-1.166,1.259,1.259,0,0,0-1.415.348,1.75,1.75,0,0,0-.4,1.328,7.626,7.626,0,0,0-10.209.444,7.889,7.889,0,0,0-1.242,9.437,7.367,7.367,0,0,0,5.207,3.7,7.6,7.6,0,0,0,6.239-1.616,1.864,1.864,0,0,0,.278,1.172,1.352,1.352,0,0,0,1.507.487,1.285,1.285,0,0,0,.941-1.373Zm-7.581,11.219h-.124a4.969,4.969,0,0,1,.124-9.934h.075a4.97,4.97,0,0,1-.074,9.935Zm-53.285,1.169a1.487,1.487,0,0,1-.931,1.514,1.347,1.347,0,0,1-1.522-.449,1.7,1.7,0,0,1-.313-1.108c0-2.012.034-4.024,0-6.036a4.91,4.91,0,0,0-4.782-5.029c-.111,0-.221,0-.332.006a4.864,4.864,0,0,0-4.614,4.714c-.034,2.128-.037,4.256-.043,6.384,0,.954-.513,1.579-1.33,1.59a1.405,1.405,0,0,1-1.4-1.583V17.655a1.512,1.512,0,0,1,.781-1.467,1.318,1.318,0,0,1,1.787.594,1.37,1.37,0,0,1,.144.613c.027,1.408.01,2.816.011,4.225,0,.637,0,1.276,0,2.025a8.281,8.281,0,0,1,2.607-1.431,7.578,7.578,0,0,1,9.546,5.029,7.791,7.791,0,0,1,.276,1.221,10.765,10.765,0,0,1,.1,1.469C109.923,31.866,109.921,33.8,109.924,35.731Zm122.859-5.867a4.755,4.755,0,0,0,2.93,4.275,4.57,4.57,0,0,0,5.058-.78,1.342,1.342,0,0,1,1.982-.019,1.434,1.434,0,0,1-.193,2.091,7.188,7.188,0,0,1-3.6,1.77,7.4,7.4,0,0,1-8.224-4.5,7.481,7.481,0,0,1,1.239-8.208,7.357,7.357,0,0,1,10.418-.9,1.535,1.535,0,0,1,.635,1.8,1.322,1.322,0,0,1-2.182.5,4.752,4.752,0,0,0-5.226-.815A4.928,4.928,0,0,0,232.783,29.864Zm-51.732-3.552a1.39,1.39,0,0,1-1.388.947c-.724.025-1.45-.009-2.175.011a13.6,13.6,0,0,0-2.254.06c-.1.747-.016,1.5-.046,2.248-.083,2.111-.026,4.223-.048,6.334a1.273,1.273,0,0,1-.893,1.31,1.349,1.349,0,0,1-1.524-.433,1.564,1.564,0,0,1-.3-1.059q0-3.39,0-6.779c0-2.178-.016-4.355,0-6.533a6.334,6.334,0,0,1,5.263-6.287,9.69,9.69,0,0,1,2.314-.047,1.318,1.318,0,0,1,1.108,1.191,1.373,1.373,0,0,1-.907,1.455,5.074,5.074,0,0,1-1.535.1,3.54,3.54,0,0,0-3.414,2.74,9.091,9.091,0,0,0-.074,2.642c.022.318.23.258.41.258,1.3,0,2.61,0,3.915,0a1.547,1.547,0,0,1,1.131.332A1.4,1.4,0,0,1,181.051,26.311Zm43.038-3.084c0,.011,0,.021,0,.032a1.379,1.379,0,0,1-1.322,1.362,13.019,13.019,0,0,0-1.687.065,3.5,3.5,0,0,0-2.95,3.532c-.011,2.44,0,4.88-.007,7.32a3.633,3.633,0,0,1-.062.73,1.343,1.343,0,0,1-2.607.052,2.918,2.918,0,0,1-.068-.68c-.009-1.26-.006-2.52-.006-4.052.044-1.2-.091-2.678.065-4.147a6.259,6.259,0,0,1,5.968-5.576c.451-.011.9-.016,1.353,0A1.345,1.345,0,0,1,224.089,23.228Zm-87,0a1.394,1.394,0,0,1-1.346,1.4c-.4.017-.806,0-1.208.01a3.545,3.545,0,0,0-3.426,3.594c0,2.521,0,5.043,0,7.565a1.358,1.358,0,0,1-1.347,1.525,1.3,1.3,0,0,1-1.362-1.23,1.324,1.324,0,0,1,0-.161c-.014-1.375,0-2.751,0-4.126h.007c0-1.293-.023-2.587,0-3.88a6.268,6.268,0,0,1,5.963-6.052c.451-.012.9-.016,1.353,0A1.369,1.369,0,0,1,137.092,23.223Zm91.341,7.538c0,1.736.006,3.471-.006,5.207a1.252,1.252,0,0,1-.9,1.256,1.306,1.306,0,0,1-1.455-.372,1.341,1.341,0,0,1-.353-.989q-.011-4.838,0-9.677a.8.8,0,0,1,.04-.16,3.159,3.159,0,0,0,2.674.016Zm-.01-7.45a1.386,1.386,0,0,1-1.072,1.63,1.34,1.34,0,0,1-.609-.018,1.242,1.242,0,0,1-.82-.635,2.153,2.153,0,0,1-.041-1.847,1.31,1.31,0,0,1,1.523-.748,1.354,1.354,0,0,1,1.017,1.275C228.426,23.082,228.422,23.2,228.423,23.311ZM259.994,35.86V23.343a2.424,2.424,0,0,0-.01-.245,1.28,1.28,0,0,0-.893-1.166,1.259,1.259,0,0,0-1.415.348,1.75,1.75,0,0,0-.4,1.328,7.626,7.626,0,0,0-10.209.444,7.889,7.889,0,0,0-1.242,9.437,7.367,7.367,0,0,0,5.207,3.7,7.6,7.6,0,0,0,6.239-1.616,1.864,1.864,0,0,0,.278,1.172,1.352,1.352,0,0,0,1.507.487A1.285,1.285,0,0,0,259.994,35.86Zm-7.581-1.3h-.124a4.969,4.969,0,0,1,.124-9.934h.075a4.97,4.97,0,0,1-.074,9.935ZM77.925,0h.342V53.529h-.342ZM58.375,19.882A9.528,9.528,0,0,0,55.333,17.8a9.377,9.377,0,0,0-3.725-.765H9.57a9.371,9.371,0,0,0-3.725.765A9.536,9.536,0,0,0,2.8,19.882,9.712,9.712,0,0,0,.752,22.976a9.919,9.919,0,0,0,0,7.577A9.708,9.708,0,0,0,2.8,33.647a9.531,9.531,0,0,0,3.042,2.086A9.377,9.377,0,0,0,9.57,36.5H51.608a9.377,9.377,0,0,0,3.725-.765,9.522,9.522,0,0,0,3.042-2.086,9.786,9.786,0,0,0,2.8-6.882,9.786,9.786,0,0,0-2.8-6.882ZM51.608,33.717H9.57a6.877,6.877,0,0,1-6.7-5.561H58.307A6.877,6.877,0,0,1,51.608,33.717ZM2.871,25.374a6.876,6.876,0,0,1,6.7-5.561H51.608a6.876,6.876,0,0,1,6.7,5.561Z" transform="translate(0)" fill="#8ccaa8"/>
</svg>
