<svg xmlns="http://www.w3.org/2000/svg" width="193.943" height="52.671" viewBox="0 0 193.943 52.671">
  <path id="Urbanio_logo" d="M112.022,26.971a6.083,6.083,0,0,1,5.7-5.419,11.132,11.132,0,0,1,1.5-.019,1.347,1.347,0,0,1,1.386,1.309,1.364,1.364,0,0,1-1.328,1.387c-.456.029-.931.01-1.4.049a3.515,3.515,0,0,0-3.257,3.548v7.484a1.334,1.334,0,0,1-1.745,1.377,1.362,1.362,0,0,1-.95-1.416c-.01-1.3-.01-4.043-.01-5.342,0-1.25.038-2.453.1-2.957Zm13.214-4.314c0-1.774.01-3.548,0-5.332a1.366,1.366,0,1,0-2.715.049l.01,18.12a1.292,1.292,0,0,0,1.241,1.251,1.363,1.363,0,0,0,1.406-1.018c.049-.194.068-.407.107-.669A7.709,7.709,0,0,0,131,36.7a7.285,7.285,0,0,0,5.177-2.947,7.561,7.561,0,0,0-.6-9.918,7.7,7.7,0,0,0-10.344-.582v-.592Zm4.876,1.6a4.891,4.891,0,1,1,.019,9.782h-.078a4.885,4.885,0,0,1-4.809-4.934v-.01a4.858,4.858,0,0,1,4.867-4.838Zm22.036-1A7.627,7.627,0,0,0,140.7,32.982a7.314,7.314,0,0,0,5.2,3.636,7.7,7.7,0,0,0,6.243-1.58,1.914,1.914,0,0,0,.281,1.154,1.358,1.358,0,0,0,1.512.475,1.262,1.262,0,0,0,.941-1.357V23a2.131,2.131,0,0,0-.01-.242,1.244,1.244,0,0,0-.892-1.144,1.274,1.274,0,0,0-1.416.339,1.7,1.7,0,0,0-.407,1.309Zm-.01,5.953a4.889,4.889,0,0,1-4.847,4.828h-.126a4.891,4.891,0,0,1,.126-9.782.165.165,0,0,1,.068.01,4.862,4.862,0,0,1,4.779,4.944ZM174.272,22.3a1.29,1.29,0,0,1,2.356,0,2.045,2.045,0,0,1-.049,1.793,1.3,1.3,0,0,1-2.259,0,2.046,2.046,0,0,1-.048-1.793Zm2.521,3.5a3.342,3.342,0,0,1-2.7,0v4.586c0,1.7,0,3.383.01,5.07A1.221,1.221,0,0,0,175,36.675a1.309,1.309,0,0,0,.9,0,1.213,1.213,0,0,0,.882-1.222c.02-1.687.01-3.374.01-5.07,0-1.483,0-2.986,0-4.586Zm9.54-4.266a7.61,7.61,0,1,1-7.62,7.61,7.6,7.6,0,0,1,7.62-7.61Zm0,12.487a4.876,4.876,0,1,0-4.876-4.876,4.88,4.88,0,0,0,4.876,4.876ZM107.214,26.35c0,1.076.049,2.162-.01,3.238a4.9,4.9,0,0,1-9.782-.495c-.01-2.026.01-4.052.01-6.088A1.335,1.335,0,0,0,96.414,21.6a1.28,1.28,0,0,0-1.5.659,1.989,1.989,0,0,0-.184.785c-.01,1.978-.02,3.965.019,5.943A7.478,7.478,0,0,0,98.5,35.7a7.558,7.558,0,0,0,11.294-5.322,7.774,7.774,0,0,0,.107-1.338c.029-2.026.039-4.033.049-6.049a1.375,1.375,0,0,0-1.377-1.445,1.434,1.434,0,0,0-1.357,1.522q0,1.643,0,3.287Zm52.381,5.671c0-1.076-.058-2.152.01-3.228a4.9,4.9,0,0,1,9.772.485c.019,2.026,0,4.062,0,6.088a1.348,1.348,0,0,0,1.008,1.416,1.287,1.287,0,0,0,1.512-.659,2.028,2.028,0,0,0,.184-.785c.01-1.987.01-3.965-.02-5.953a7.451,7.451,0,0,0-3.771-6.7A7.562,7.562,0,0,0,157,28a10.377,10.377,0,0,0-.1,1.348c-.029,2.016-.039,4.023-.039,6.049a1.379,1.379,0,0,0,1.367,1.445,1.431,1.431,0,0,0,1.357-1.532V32.032Zm-81.62,20.65h.349V0h-.349ZM2.87,24.964A6.858,6.858,0,0,1,9.579,19.5H51.644a6.859,6.859,0,0,1,6.709,5.468Zm6.708,8.212a6.859,6.859,0,0,1-6.709-5.468H58.352a6.858,6.858,0,0,1-6.709,5.468Zm42.066,2.734a9.5,9.5,0,0,0,3.732-.747,9.7,9.7,0,0,0,3.044-2.055,9.589,9.589,0,0,0,0-13.544,9.7,9.7,0,0,0-3.044-2.055,9.5,9.5,0,0,0-3.732-.747H9.578a9.5,9.5,0,0,0-3.732.747A9.7,9.7,0,0,0,2.8,19.564a9.589,9.589,0,0,0,0,13.544,9.7,9.7,0,0,0,3.044,2.055,9.5,9.5,0,0,0,3.732.747Z" fill="#8ccaa8"/>
</svg>
